<svg width="117" height="27" viewBox="0 0 117 27" fill="none" xmlns="http://www.w3.org/2000/svg">
<path d="M103.213 16.0899C103.213 12.1359 104.342 9.96117 106.402 9.96117C108.151 9.96117 109.365 11.5428 109.365 13.8304V20.9476C109.365 21.9644 108.01 23.0093 106.684 23.0093C104.539 23.0093 103.213 20.3828 103.213 16.0899ZM104.511 26.9069C106.091 26.9069 107.559 26.3985 108.829 24.6474C109.083 24.2803 109.478 24.478 109.393 24.8451L109.083 26.0878C108.941 26.6244 109.393 26.9633 109.958 26.6809C111.03 26.1443 113.541 25.6077 115.883 25.3817C116.25 25.3535 116.476 25.0993 116.476 24.7322C116.476 23.7154 114.839 22.6987 114.839 20.2416V0.669281C114.839 0.217396 114.388 -0.065031 113.908 0.189154C112.215 1.09292 109.901 1.99669 108.264 2.30737C107.926 2.36385 107.728 2.61804 107.728 2.95695C107.728 3.88896 109.365 4.96219 109.365 7.58877V8.29484C109.365 8.4643 109.252 8.49254 109.139 8.40781C108.434 7.75823 107.446 7.33458 105.95 7.33458C101.21 7.33458 97.795 11.7405 97.795 17.7844C97.795 23.1506 100.504 26.9069 104.511 26.9069ZM79.2236 26.3985H86.109C86.4758 26.3985 86.7298 26.1443 86.7298 25.7771C86.7298 24.8734 85.4035 24.3368 85.4035 21.3148V13.435C85.4035 13.1244 85.46 12.9831 85.6575 12.7007C86.3065 11.7969 87.5199 11.2039 88.6769 11.2039C90.0314 11.2039 90.6522 11.9946 90.6522 13.6327V21.3148C90.6522 24.3368 89.3259 24.8734 89.3259 25.7771C89.3259 26.1443 89.5799 26.3985 89.9468 26.3985H96.8322C97.199 26.3985 97.453 26.1443 97.453 25.7771C97.453 24.8734 96.1267 24.3368 96.1267 21.3148V13.4068C96.1267 9.53752 93.9538 7.33458 90.9062 7.33458C88.9873 7.33458 87.5482 8.21011 85.855 9.96117C85.6857 10.1306 85.3471 9.98941 85.4317 9.62225L85.7421 8.37957C85.8832 7.78647 85.3471 7.53228 84.8674 7.78647C83.5693 8.49254 80.8885 9.50928 78.8285 9.93292C78.4899 9.98941 78.2924 10.2436 78.2924 10.5825C78.2924 11.5428 79.9291 12.5877 79.9291 15.0449V21.3148C79.9291 24.3368 78.6028 24.8734 78.6028 25.7771C78.6028 26.1443 78.8567 26.3985 79.2236 26.3985ZM70.3877 3.74775C70.3877 5.6965 71.9679 7.2781 73.915 7.2781C75.8622 7.2781 77.4424 5.6965 77.4424 3.74775C77.4424 1.79899 75.8622 0.245639 73.915 0.245639C71.9679 0.245639 70.3877 1.79899 70.3877 3.74775ZM70.4441 26.3985H77.3295C77.6964 26.3985 77.9503 26.1443 77.9503 25.7771C77.9503 24.8734 76.6241 24.3368 76.6241 21.3148V8.29484C76.6241 7.84296 76.1726 7.56053 75.6928 7.81471C73.9997 8.71848 71.6858 9.62225 70.0491 9.93292C69.7104 9.98941 69.5129 10.2436 69.5129 10.5825C69.5129 11.5145 71.1496 12.5877 71.1496 15.2143V21.3148C71.1496 24.3368 69.8233 24.8734 69.8233 25.7771C69.8233 26.1443 70.0773 26.3985 70.4441 26.3985ZM41.3755 26.3985H48.2609C48.656 26.3985 48.8817 26.1161 48.8817 25.7771C48.8817 24.8734 47.5554 24.3368 47.5554 21.3148V13.435C47.5554 13.1526 47.6401 12.8984 47.8658 12.616C48.6842 11.6275 49.4179 11.1756 50.3773 11.1756C51.9858 11.1756 52.2398 12.4465 52.2398 13.6327V21.3148C52.2398 24.3368 50.9135 24.8734 50.9135 25.7771C50.9135 26.1161 51.1392 26.3985 51.5343 26.3985H58.4197C58.8148 26.3985 59.0405 26.1161 59.0405 25.7771C59.0405 24.8734 57.7142 24.3368 57.7142 21.3148V13.435C57.7142 13.1526 57.8271 12.8984 57.9964 12.7007C58.843 11.6275 59.6613 11.1756 60.649 11.1756C62.2292 11.1756 62.4268 12.5313 62.4268 13.7175V21.3148C62.4268 24.3368 61.1005 24.8734 61.1005 25.7771C61.1005 26.1161 61.3262 26.3985 61.7213 26.3985H68.6067C69.0018 26.3985 69.2275 26.1161 69.2275 25.7771C69.2275 24.8734 67.9012 24.3368 67.9012 21.3148V13.3785C67.9012 9.50928 65.9541 7.33458 62.5961 7.33458C60.6208 7.33458 58.8148 8.29484 57.2627 10.1871C57.1781 10.2718 57.0652 10.2718 57.0087 10.1589C56.0775 8.35133 54.6948 7.33458 52.7759 7.33458C50.8006 7.33458 49.7001 8.21011 48.0069 9.96117C47.8376 10.1306 47.499 9.98941 47.5836 9.62225L47.8941 8.37957C48.0351 7.78647 47.499 7.53228 47.0193 7.78647C45.7212 8.49254 43.0404 9.50928 40.9804 9.93292C40.6418 9.98941 40.4443 10.2436 40.4443 10.5825C40.4443 11.5428 42.081 12.5877 42.081 15.0449V21.3148C42.081 24.3368 40.7547 24.8734 40.7547 25.7771C40.7547 26.1161 40.9804 26.3985 41.3755 26.3985ZM21.9293 26.3985H28.8147C29.1815 26.3985 29.4355 26.1443 29.4355 25.7771C29.4355 24.8734 28.1092 24.3368 28.1092 21.3148V13.435C28.1092 13.1244 28.1657 12.9831 28.3632 12.7007C29.0122 11.7969 30.2256 11.2039 31.3826 11.2039C32.7371 11.2039 33.3579 11.9946 33.3579 13.6327V21.3148C33.3579 24.3368 32.0316 24.8734 32.0316 25.7771C32.0316 26.1443 32.2856 26.3985 32.6525 26.3985H39.5379C39.9047 26.3985 40.1587 26.1443 40.1587 25.7771C40.1587 24.8734 38.8324 24.3368 38.8324 21.3148V13.4068C38.8324 9.53752 36.6595 7.33458 33.6119 7.33458C31.693 7.33458 30.2538 8.21011 28.5607 9.96117C28.3914 10.1306 28.0528 9.98941 28.1374 9.62225L28.4478 8.37957C28.5889 7.78647 28.0528 7.53228 27.5731 7.78647C26.275 8.49254 23.5942 9.50928 21.5342 9.93292C21.1956 9.98941 20.9981 10.2436 20.9981 10.5825C20.9981 11.5428 22.6347 12.5877 22.6347 15.0449V21.3148C22.6347 24.3368 21.3085 24.8734 21.3085 25.7771C21.3085 26.1443 21.5624 26.3985 21.9293 26.3985ZM15.7744 3.63478H20.9666C21.3617 3.63478 21.5875 3.91721 21.5875 4.25612C21.5875 5.15989 19.9508 5.6965 19.9508 8.71848V17.9539C19.9508 23.6872 17.1006 26.6809 11.6262 26.6809H11.4287C5.47447 26.6809 1.6367 23.4047 1.6367 18.321V8.71848C1.6367 5.6965 0 5.15989 0 4.25612C0 3.91721 0.225752 3.63478 0.620816 3.63478H9.7073C10.1024 3.63478 10.3281 3.91721 10.3281 4.25612C10.3281 5.15989 8.69142 5.6965 8.69142 8.71848V17.4738C8.69142 21.2865 9.93305 22.9811 12.7832 22.9811C15.464 22.9811 16.6491 21.456 16.6491 17.9539V8.662C16.6491 5.6965 15.1253 5.15989 15.1253 4.25612C15.1253 3.91721 15.3511 3.63478 15.7744 3.63478Z" fill="#2D150D"/>
</svg>
